<?xml version="1.0" ?><svg xmlns="http://www.w3.org/2000/svg" xmlns:xlink="http://www.w3.org/1999/xlink" version="1.1" id="Layer_1" viewBox="0 0 100 100" style="enable-background:new 0 0 100 100;" xml:space="preserve"><style type="text/css">
	.st0{fill:#D6EEFC;}
	.st1{fill:#005EB8;}
	.st2{fill:#0A84F2;}
	.st3{fill:#A5DDFC;}
	.st4{fill:#70BEF2;}
	.st5{fill:#FFFFFF;}
	.st6{fill:#F1920C;}
	.st7{fill:#F9B75F;}
</style><g><circle class="st0" cx="47" cy="51.2" r="33.1"/><g><g><g><g><path class="st1" d="M72.4,73.3H21.7V41.7c0-1.6,1.3-2.9,2.9-2.9h44.8c1.6,0,2.9,1.3,2.9,2.9V73.3z"/></g><g><rect x="32.4" y="33.3" transform="matrix(-1.836970e-16 1 -1 -1.836970e-16 103.0321 8.9733)" class="st0" width="29.2" height="45.3"/></g><g><path class="st2" d="M15.3,73.3L15.3,73.3h63.4l0,0c0,0.9-0.8,1.7-1.7,1.7H17C16.1,74.9,15.3,74.2,15.3,73.3z"/></g><g><path class="st3" d="M38.6,73.5v-0.2h16.9v0.2c0,0.3-0.3,0.6-0.6,0.6H39.2C38.9,74.1,38.6,73.8,38.6,73.5z"/></g></g><g><g><rect x="24.4" y="41.4" class="st2" width="45.3" height="2.7"/></g><g><g><circle class="st4" cx="68.5" cy="42.7" r="0.6"/></g><g><circle class="st4" cx="66.6" cy="42.7" r="0.6"/></g><g><circle class="st4" cx="64.7" cy="42.7" r="0.6"/></g></g></g></g><g><g><rect x="26.3" y="46.2" class="st1" width="25.8" height="22.2"/><path class="st5" d="M29.2,49.2c0,0.3,0.2,0.6,0.6,0.6h1.8l2.1,6.3c0,0.1,0,0.1,0.1,0.2l2,6.1c-0.7,0.3-1.1,0.9-1.1,1.7      c0,1,0.8,1.9,1.9,1.9s1.9-0.8,1.9-1.9c0-0.3-0.1-0.5-0.2-0.8h5.3c-0.1,0.2-0.2,0.5-0.2,0.8c0,1,0.8,1.9,1.9,1.9s1.9-0.8,1.9-1.9      c0-1-0.7-1.7-1.6-1.9c0,0-0.1,0-0.1,0h-8.4l-0.8-2.3h2.6c0,0,0,0,0,0c0,0,0,0,0,0h4.1c0,0,0,0,0,0c0,0,0,0,0,0h3.5      c0.2,0,0.5-0.2,0.5-0.4l2.2-6.7c0.1-0.2,0-0.4-0.1-0.5c-0.1-0.1-0.3-0.2-0.5-0.2h-15l-1-3c-0.1-0.2-0.3-0.4-0.5-0.4h-2.2      C29.5,48.7,29.2,48.9,29.2,49.2z M33.9,53.1h3.5l0.3,2.2h-3L33.9,53.1z M39.2,58.7l-0.3-2.2h3.7l-0.3,2.2H39.2z M38.8,55.4      l-0.3-2.2h4.6l-0.3,2.2H38.8z M47.8,53.1L47,55.4h-3.1l0.3-2.2H47.8z M45.9,58.7h-2.5l0.3-2.2h2.9L45.9,58.7z M35.7,58.7      L35,56.5h2.8l0.3,2.2H35.7z M45.2,63.2c0.4,0,0.8,0.3,0.8,0.8s-0.3,0.8-0.8,0.8s-0.8-0.3-0.8-0.8S44.8,63.2,45.2,63.2z M35.7,64      c0-0.4,0.3-0.8,0.8-0.8c0.4,0,0.8,0.3,0.8,0.8s-0.3,0.8-0.8,0.8C36.1,64.7,35.7,64.4,35.7,64z"/></g></g><rect x="53.8" y="46.2" class="st1" width="14.4" height="3.1"/><rect x="53.8" y="51.3" class="st3" width="14.4" height="1.8"/><rect x="53.8" y="54.4" class="st3" width="14.4" height="1.8"/><rect x="53.8" y="57.6" class="st3" width="14.4" height="1.8"/><rect x="53.8" y="60.8" class="st3" width="14.4" height="1.8"/><path class="st6" d="M65.9,68.3H56c-0.7,0-1.3-0.6-1.3-1.3v-1.8c0-0.7,0.6-1.3,1.3-1.3h9.9c0.7,0,1.3,0.6,1.3,1.3v1.8    C67.2,67.8,66.6,68.3,65.9,68.3z"/></g><circle class="st7" cx="68.9" cy="32.9" r="17.1"/><g><path class="st5" d="M62.9,37.7h-5.7v-9.6h5.7v2.1h-3.1v1.5h2.9v2.1h-2.9v1.8h3.1V37.7z"/><path class="st5" d="M67.2,34.2v3.5h-2.6v-9.6h3.1c2.6,0,3.9,0.9,3.9,2.8c0,1.1-0.5,2-1.6,2.6l2.8,4.2h-2.9l-2-3.5H67.2z     M67.2,32.2h0.5c0.9,0,1.4-0.4,1.4-1.2c0-0.7-0.4-1-1.3-1h-0.5V32.2z"/><path class="st5" d="M80.7,31.1c0,1.1-0.3,1.9-0.9,2.5c-0.6,0.6-1.5,0.9-2.7,0.9h-0.7v3.2h-2.6v-9.6H77c1.2,0,2.1,0.3,2.7,0.8    C80.3,29.4,80.7,30.1,80.7,31.1z M76.3,32.4h0.5c0.4,0,0.7-0.1,0.9-0.3c0.2-0.2,0.3-0.5,0.3-0.9c0-0.6-0.4-1-1.1-1h-0.7V32.4z"/></g></g></svg>